<?xml version="1.0" encoding="UTF-8"?>
<!DOCTYPE svg PUBLIC "-//W3C//DTD SVG 1.1//EN" "http://www.w3.org/Graphics/SVG/1.1/DTD/svg11.dtd">
<svg version="1.1" xmlns="http://www.w3.org/2000/svg" xmlns:xlink="http://www.w3.org/1999/xlink" x="0" y="0" width="20" height="30" viewBox="0, 0, 20, 30">
  <g id="Calque_1">
    <g>
      <path d="M9.978,5.503 C15.211,5.503 19.453,9.745 19.453,14.978 C19.453,20.211 15.211,24.453 9.978,24.453 C4.745,24.453 0.503,20.211 0.503,14.978 C0.503,9.745 4.745,5.503 9.978,5.503 z M9.978,6.296 C5.183,6.296 1.296,10.183 1.296,14.978 C1.296,19.169 4.267,22.667 8.217,23.481 C8.336,22.614 9.078,21.945 9.978,21.945 C10.877,21.945 11.62,22.614 11.738,23.481 C15.689,22.667 18.66,19.169 18.66,14.978 C18.66,10.183 14.773,6.296 9.978,6.296 z" fill="#FFFFFF"/>
      <path d="M9.978,5.503 C15.211,5.503 19.453,9.745 19.453,14.978 C19.453,20.211 15.211,24.453 9.978,24.453 C4.745,24.453 0.503,20.211 0.503,14.978 C0.503,9.745 4.745,5.503 9.978,5.503 z M9.978,6.296 C5.183,6.296 1.296,10.183 1.296,14.978 C1.296,19.169 4.267,22.667 8.217,23.481 C8.336,22.614 9.078,21.945 9.978,21.945 C10.877,21.945 11.62,22.614 11.738,23.481 C15.689,22.667 18.66,19.169 18.66,14.978 C18.66,10.183 14.773,6.296 9.978,6.296 z" fill-opacity="0" stroke="#FFFFFF" stroke-width="0.22"/>
    </g>
    <g id="path4722">
      <path d="M4.538,18.118 C4.87,18.693 5.604,18.889 6.178,18.558 C6.752,18.226 6.949,17.492 6.618,16.918 C6.286,16.344 5.552,16.147 4.978,16.478 C4.404,16.81 4.207,17.544 4.538,18.118 z" fill="#FFFFFF"/>
      <path d="M4.538,18.118 C4.87,18.693 5.604,18.889 6.178,18.558 C6.752,18.226 6.949,17.492 6.618,16.918 C6.286,16.344 5.552,16.147 4.978,16.478 C4.404,16.81 4.207,17.544 4.538,18.118 z" fill-opacity="0" stroke="#FFFFFF" stroke-width="0.22"/>
    </g>
    <g id="path4724">
      <path d="M6.618,13.038 C6.949,12.464 6.752,11.729 6.178,11.398 C5.604,11.066 4.87,11.263 4.538,11.837 C4.207,12.411 4.403,13.145 4.978,13.477 C5.552,13.809 6.286,13.612 6.618,13.038 z" fill="#FFFFFF"/>
      <path d="M6.618,13.038 C6.949,12.464 6.752,11.729 6.178,11.398 C5.604,11.066 4.87,11.263 4.538,11.837 C4.207,12.411 4.403,13.145 4.978,13.477 C5.552,13.809 6.286,13.612 6.618,13.038 z" fill-opacity="0" stroke="#FFFFFF" stroke-width="0.22"/>
    </g>
    <g id="path4726">
      <path d="M9.978,11.098 C10.641,11.098 11.178,10.56 11.178,9.897 C11.178,9.234 10.641,8.697 9.978,8.697 C9.315,8.697 8.777,9.234 8.777,9.897 C8.778,10.56 9.315,11.098 9.978,11.098 z" fill="#FFFFFF"/>
      <path d="M9.978,11.098 C10.641,11.098 11.178,10.56 11.178,9.897 C11.178,9.234 10.641,8.697 9.978,8.697 C9.315,8.697 8.777,9.234 8.777,9.897 C8.778,10.56 9.315,11.098 9.978,11.098 z" fill-opacity="0" stroke="#FFFFFF" stroke-width="0.22"/>
    </g>
    <g id="path4728">
      <path d="M13.338,13.038 C13.67,13.612 14.404,13.809 14.978,13.477 C15.552,13.145 15.749,12.411 15.417,11.837 C15.086,11.263 14.352,11.066 13.777,11.398 C13.203,11.73 13.007,12.464 13.338,13.038 z" fill="#FFFFFF"/>
      <path d="M13.338,13.038 C13.67,13.612 14.404,13.809 14.978,13.477 C15.552,13.145 15.749,12.411 15.417,11.837 C15.086,11.263 14.352,11.066 13.777,11.398 C13.203,11.73 13.007,12.464 13.338,13.038 z" fill-opacity="0" stroke="#FFFFFF" stroke-width="0.22"/>
    </g>
    <g id="path4730">
      <path d="M15.417,18.118 C15.749,17.544 15.552,16.81 14.978,16.478 C14.403,16.147 13.669,16.344 13.338,16.918 C13.007,17.492 13.203,18.226 13.777,18.558 C14.352,18.889 15.086,18.692 15.417,18.118 z" fill="#FFFFFF"/>
      <path d="M15.417,18.118 C15.749,17.544 15.552,16.81 14.978,16.478 C14.403,16.147 13.669,16.344 13.338,16.918 C13.007,17.492 13.203,18.226 13.777,18.558 C14.352,18.889 15.086,18.692 15.417,18.118 z" fill-opacity="0" stroke="#FFFFFF" stroke-width="0.22"/>
    </g>
  </g>
</svg>
